<?xml version="1.0" encoding="UTF-8" standalone="no"?>
<!-- Created with Inkscape (http://www.inkscape.org/) -->

<svg
   width="512"
   height="512"
   viewBox="0 0 512 512"
   version="1.1"
   id="svg1"
   xml:space="preserve"
   inkscape:version="1.3.2 (091e20e, 2023-11-25, custom)"
   sodipodi:docname="DS Status Effects.svg"
   inkscape:export-filename="Slowed.svg"
   inkscape:export-xdpi="96"
   inkscape:export-ydpi="96"
   xmlns:inkscape="http://www.inkscape.org/namespaces/inkscape"
   xmlns:sodipodi="http://sodipodi.sourceforge.net/DTD/sodipodi-0.dtd"
   xmlns="http://www.w3.org/2000/svg"
   xmlns:svg="http://www.w3.org/2000/svg"><sodipodi:namedview
     id="namedview1"
     pagecolor="#ffffff"
     bordercolor="#000000"
     borderopacity="0.25"
     inkscape:showpageshadow="2"
     inkscape:pageopacity="0.0"
     inkscape:pagecheckerboard="0"
     inkscape:deskcolor="#d1d1d1"
     inkscape:document-units="px"
     inkscape:zoom="1.5302233"
     inkscape:cx="198.01032"
     inkscape:cy="258.45902"
     inkscape:window-width="2102"
     inkscape:window-height="1237"
     inkscape:window-x="1317"
     inkscape:window-y="298"
     inkscape:window-maximized="0"
     inkscape:current-layer="layer6"
     inkscape:export-bgcolor="#ffffff00" /><defs
     id="defs1" /><g
     inkscape:groupmode="layer"
     id="layer2"
     inkscape:label="Grabbed"
     style="display:inline;fill:#ffffff"><path
       style="display:inline;fill:#ffffff;stroke:none;stroke-width:4.90066;stroke-linecap:round;stroke-linejoin:round;stroke-dasharray:none;stroke-opacity:1;paint-order:normal"
       d="m 378.92538,449.79331 c -0.67385,-0.15211 -18.49997,-1.21766 -39.61362,-2.36787 -21.11366,-1.15022 -42.43151,-2.44527 -47.37299,-2.8779 -4.9415,-0.43264 -23.13518,-1.88305 -40.4304,-3.22314 -17.29523,-1.34009 -34.20249,-2.80061 -37.57168,-3.2456 -3.3692,-0.445 -16.04964,-1.75379 -28.17876,-2.90845 -12.12913,-1.15465 -24.07447,-2.44432 -26.54521,-2.86591 -2.47075,-0.42159 -11.84324,-1.69694 -20.82779,-2.8341 -8.98453,-1.13716 -18.90836,-2.59776 -22.05294,-3.24576 -24.390566,-5.02616 -33.400537,-6.1252 -59.815451,-7.29622 -29.687379,-1.31608 -30.408421,-1.47419 -35.111391,-7.69872 -5.767954,-7.63405 -5.536552,-3.75318 -5.536552,-92.85397 0,-75.84993 0.08054,-80.33619 1.537102,-85.62021 1.738894,-6.30824 6.282982,-12.78838 10.013734,-14.2802 1.283893,-0.51337 8.031362,-1.67679 14.994375,-2.58536 26.51596,-3.45993 36.404317,-5.05877 38.101724,-6.16065 0.965372,-0.62668 15.667321,-12.2409 32.671029,-25.80939 43.71421,-34.88276 53.10127,-42.19482 83.20213,-64.81053 14.82602,-11.13925 34.07994,-25.257705 38.46521,-28.205679 27.83402,-18.711239 29.84776,-19.987886 39.41491,-24.987795 l 7.35009,-3.841248 5.97671,0.972119 c 18.66073,3.035184 83.96813,21.330564 93.87783,26.29918 3.55955,1.784718 4.80292,5.593258 4.80292,14.711853 0,12.92307 -5.80145,21.64416 -18.48067,27.78125 -11.81448,5.71854 -19.06801,6.81973 -45.01466,6.83388 -16.60879,0.009 -22.34401,0.26194 -22.6263,0.99766 -0.20796,0.54203 -2.73442,4.58506 -5.61434,8.98452 -2.87992,4.39947 -7.72884,11.85828 -10.77534,16.57516 -3.04654,4.71688 -6.77245,10.45194 -8.27983,12.74457 -1.50738,2.29263 -2.74068,4.68981 -2.74068,5.32708 0,0.63726 3.03996,4.18282 6.75546,7.87902 l 6.75546,6.72036 6.10875,-0.0689 c 3.35982,-0.0378 8.13028,-0.35624 10.60102,-0.7074 15.87126,-2.25579 33.75713,-5.20363 37.70032,-6.21353 2.5415,-0.65091 7.68718,-1.75112 11.43486,-2.4449 12.6196,-2.33624 43.75875,-10.29781 46.2848,-11.83399 5.01235,-3.0482 5.39802,-4.46055 6.00286,-21.98347 0.5766,-16.70468 1.1008,-19.81903 4.06361,-24.14298 3.86527,-5.64099 15.21111,-11.01527 23.25473,-11.01527 8.55205,0 13.8389,4.62531 25.20708,22.05294 5.85185,8.97101 16.84843,31.16531 19.5359,39.42915 2.88878,8.88284 2.65418,11.77763 -1.70553,21.04493 -5.31616,11.30043 -14.96032,19.76019 -37.41902,32.82355 -5.93657,3.45306 -29.96787,15.33354 -31.01602,15.33354 -0.24082,0 -2.36568,0.9456 -4.72191,2.10137 -2.35625,1.15576 -6.85693,3.03613 -10.00152,4.17862 -3.14458,1.14248 -6.13274,2.41057 -6.64036,2.81794 -0.50763,0.40738 -3.99935,1.79685 -7.75937,3.08772 -3.76003,1.29088 -8.12286,2.92206 -9.69514,3.62487 l -2.85872,1.27782 3.89534,0.032 c 9.11762,0.0749 57.96737,-5.60935 59.25269,-6.89466 0.18471,-0.1847 -0.25684,-2.07518 -0.98122,-4.20107 -0.72436,-2.1259 -1.31701,-4.34581 -1.31701,-4.93316 0,-0.58735 2.1134,-2.13581 4.69645,-3.44105 7.57611,-3.82824 29.64476,-17.67933 39.95615,-25.07796 1.73895,-1.24771 1.84724,-1.1147 5.82607,7.15649 9.49473,19.73768 12.86323,27.69162 17.40535,41.09888 2.511,7.41192 2.76706,9.03697 2.76706,17.56067 0,8.98738 -0.12061,9.65041 -2.7947,15.35635 -3.05447,6.51773 -9.53623,13.35931 -15.20541,16.0495 -9.95967,4.72617 -45.37596,8.63803 -108.16636,11.94736 -8.74598,0.46094 -16.05604,0.99236 -16.24459,1.18092 -0.82329,0.82327 4.78338,2.06227 18.38095,4.06194 32.54348,4.7859 35.87521,5.25856 37.2477,5.28431 1.14839,0.0215 1.42936,-0.67829 1.42936,-3.56012 v -3.58693 l 15.31454,-0.49168 c 8.423,-0.27045 20.91225,-0.68232 27.7539,-0.9153 l 12.43935,-0.42358 -0.44381,10.42384 c -0.44177,10.37592 -1.90974,19.55985 -4.13795,25.88783 -2.1711,6.16578 -9.05806,14.93372 -13.60308,17.31837 -5.06535,2.65763 -38.67946,5.14262 -70.06617,5.17975 -23.39937,0.0276 -52.34192,1.02097 -51.59228,1.77062 1.39206,1.39205 17.30444,2.29102 54.93158,3.10338 50.54397,1.09119 56.35752,1.48852 56.35752,3.85169 0,2.12055 -7.90673,24.31026 -10.44094,29.30179 -1.36021,2.67916 -3.51862,5.85755 -4.79643,7.06307 -4.97362,4.69225 -20.85025,10.46217 -32.13563,11.67878 -8.41844,0.90755 -10.20935,1.02472 -11.43485,0.74806 z"
       id="path14" /></g></svg>
