<?xml version="1.0" encoding="UTF-8" standalone="no"?>
<!-- Created with Inkscape (http://www.inkscape.org/) -->

<svg
   width="512"
   height="512"
   viewBox="0 0 512 512"
   version="1.1"
   id="svg1"
   xml:space="preserve"
   inkscape:version="1.3.2 (091e20e, 2023-11-25, custom)"
   sodipodi:docname="DS Status Effects.svg"
   inkscape:export-filename="Concealed.svg"
   inkscape:export-xdpi="96"
   inkscape:export-ydpi="96"
   xmlns:inkscape="http://www.inkscape.org/namespaces/inkscape"
   xmlns:sodipodi="http://sodipodi.sourceforge.net/DTD/sodipodi-0.dtd"
   xmlns="http://www.w3.org/2000/svg"
   xmlns:svg="http://www.w3.org/2000/svg"><sodipodi:namedview
     id="namedview1"
     pagecolor="#ffffff"
     bordercolor="#000000"
     borderopacity="0.25"
     inkscape:showpageshadow="2"
     inkscape:pageopacity="0.0"
     inkscape:pagecheckerboard="0"
     inkscape:deskcolor="#d1d1d1"
     inkscape:document-units="px"
     inkscape:zoom="0.13525391"
     inkscape:cx="-842.8592"
     inkscape:cy="40.66426"
     inkscape:window-width="1920"
     inkscape:window-height="1057"
     inkscape:window-x="3632"
     inkscape:window-y="403"
     inkscape:window-maximized="1"
     inkscape:current-layer="layer1"
     inkscape:export-bgcolor="#ffffff00" /><defs
     id="defs1" /><g
     inkscape:groupmode="layer"
     id="layer7"
     inkscape:label="Phasing"
     style="display:inline"><path
       id="use181"
       style="color:#000000;display:inline;fill:#ffffff;stroke-dasharray:32, 8;-inkscape-stroke:none"
       d="m 246.61318,23.876311 c -5.83125,1.227217 -11.8907,3.829477 -18.06632,8.001343 h 30.94168 v -8.001343 z m 21.45409,0.928906 v 7.072437 h 15.35609 c -4.5984,-2.967126 -9.75535,-5.468338 -15.35609,-7.072437 z m -57.56122,24.071419 c -0.17328,0.224057 -0.37165,0.441641 -0.54095,0.666627 v 7.332895 h 34.3167 v -7.999522 z m 42.35265,0 v 7.999522 h 34.31489 v -7.999522 z m 42.89361,0 v 7.999522 h 10.74617 c -1.49015,-3.044054 -3.06696,-5.730629 -4.68642,-7.999522 z m -96.84848,25.000326 c -0.57486,2.665515 -0.92742,5.331381 -1.18208,7.999521 h 23.34286 v -7.999521 z m 30.73951,0 v 7.999521 h 34.31306 v -7.999521 z m 42.8936,0 v 7.999521 h 34.31489 v -7.999521 z m -74.63487,25.000325 c 0.3055,2.715053 0.70486,5.386523 1.21486,7.999523 h 31.39703 v -7.999523 z m 41.19061,0 v 7.999523 h 34.31306 v -7.999523 z m 42.89361,0 v 7.999523 h 32.74121 c 0.28511,-2.70315 0.46307,-5.37063 0.51909,-7.999523 z m -78.17747,25.000323 c 1.00513,2.84811 2.03915,5.51103 3.09271,7.99952 h 6.7883 v -7.99952 z m 18.45791,0 v 7.99952 h 34.31488 v -7.99952 z m 42.89543,0 v 7.99952 h 34.31488 v -7.99952 z m 42.89178,0 v 7.99952 h 0.43349 c 1.07277,-2.67223 2.01064,-5.33702 2.80676,-7.99952 z M 215.442,148.87612 c 0.30912,0.50089 0.86698,1.42796 0.86698,1.42796 -4.99127,1.93412 -9.56448,4.18138 -13.93177,6.57338 h 33.58815 v -8.00134 z m 29.10208,0 v 8.00134 h 34.31489 v -8.00134 z m 42.89361,0 v 8.00134 h 21.72001 c -6.88024,-3.28638 -11.67269,-4.46912 -11.81532,-4.61175 0.80581,-1.12112 1.45833,-2.26073 2.20205,-3.38959 z m -108.12467,25.00032 c -2.62894,2.57539 -5.12642,5.22866 -7.41486,8.00134 h 28.75602 v -8.00134 z m 29.9217,0 v 8.00134 h 34.31489 v -8.00134 z m 42.89179,0 v 8.00134 h 34.31488 v -8.00134 z m 42.89361,0 v 8.00134 h 34.31306 v -8.00134 z m 42.8936,4.9232 v 3.07814 h 2.56269 c -0.85188,-1.0455 -1.70154,-2.10327 -2.56269,-3.07814 z m -177.49211,20.07713 c -1.44557,2.62509 -2.78287,5.29302 -4.02343,7.99952 h 20.22829 v -7.99952 z m 24.78358,0 v 7.99952 h 34.31489 v -7.99952 z m 42.89179,0 v 7.99952 h 34.31489 v -7.99952 z m 42.89543,0 v 7.99952 h 34.31489 v -7.99952 z m 42.89179,0 v 7.99952 h 34.31488 v -7.99952 z m -163.9228,25.00032 c -0.8132,2.6562 -1.55416,5.32146 -2.22027,7.99952 h 7.83378 v -7.99952 z m 14.19223,0 v 7.99952 h 34.31489 v -7.99952 z m 42.89361,0 v 7.99952 h 34.31488 v -7.99952 z m 42.89178,0 v 7.99952 h 34.31489 v -7.99952 z m 42.89361,0 v 7.99952 h 34.31307 v -7.99952 z m 42.89361,0 v 7.99952 h 28.328 c -0.65785,-2.7647 -1.37555,-5.42053 -2.13649,-7.99952 z m -191.32735,25.00033 c -0.39276,2.68068 -0.73135,5.34645 -1.01087,7.99952 h 26.42465 v -7.99952 z m 33.9925,0 v 7.99952 h 34.31307 v -7.99952 z m 42.89361,0 v 7.99952 h 34.31489 v -7.99952 z m 42.89361,0 v 7.99952 h 34.31306 v -7.99952 z m 42.89179,0 v 7.99952 h 34.31488 v -7.99952 z m 42.8936,0 v 7.99952 h 18.13553 c -0.26285,-2.72002 -0.541,-5.41726 -0.8943,-7.99952 z m -196.65854,25.00032 v 7.99952 h 34.31307 v -7.99952 z m 42.89179,0 v 7.99952 h 34.31489 v -7.99952 z m 42.89179,0 v 7.99952 h 34.31488 v -7.99952 z m 42.89543,0 v 7.99952 h 34.31488 v -7.99952 z m 42.89178,0 v 7.99952 h 34.31489 v -7.99952 z m 42.89361,0 v 7.99952 h 1.38425 c 0.0246,-2.7247 0.004,-5.3868 -0.0528,-7.99952 z m -218.03249,24.99851 v 8.00134 h 34.31489 v -8.00134 z m 42.89361,0 v 8.00134 h 34.31489 v -8.00134 z m 42.89179,0 v 8.00134 h 34.31488 v -8.00134 z m 42.89542,0 v 8.00134 h 34.31489 v -8.00134 z m 42.89179,0 v 8.00134 h 34.31489 v -8.00134 z m 42.89361,0 v 8.00134 h 3.6282 c 0.24956,-2.70817 0.47557,-5.38619 0.65205,-8.00134 z m -218.56798,25.00032 c 0.53495,3.31897 0.99158,5.78857 1.42979,7.99952 h 7.65892 v -7.99952 z m 17.66743,0 v 7.99952 h 34.31489 v -7.99952 z m 42.89361,0 v 7.99952 h 34.31489 v -7.99952 z m 42.89361,0 v 7.99952 h 34.31489 v -7.99952 z m 42.89179,0 v 7.99952 h 34.31488 v -7.99952 z m 42.89543,0 v 7.99952 h 29.74685 c 0.42882,-2.67682 0.89854,-5.40112 1.26222,-7.99952 z m -143.0297,25.00033 0.306,7.99952 h 22.94944 v -7.99952 z m 31.83416,0 v 7.99952 h 34.31489 v -7.99952 z m 42.89179,0 v 7.99952 h 34.31489 v -7.99952 z m 42.89543,0 v 7.99952 h 8.45305 l 0.48084,-7.99952 z m -116.66333,25.00032 0.30599,7.99952 h 0.41528 v -7.99952 z m 9.30181,0 v 7.99952 h 34.31489 v -7.99952 z m 42.89179,0 v 7.99952 h 34.31489 v -7.99952 z m 42.89361,0 v 7.99952 h 28.52652 l 0.48085,-7.99952 z m -94.13098,25.00033 0.30781,7.99952 h 19.65274 v -7.99952 z m 28.53927,0 v 7.99952 h 34.31307 v -7.99952 z m 42.89179,0 v 7.99952 h 34.31489 v -7.99952 z m 42.89361,0 v 7.99952 h 6.83019 l 0.48085,-7.99952 z m -109.549,24.9985 v 8.00134 h 34.31306 v -8.00134 z m 42.89179,0 v 8.00134 h 34.31488 v -8.00134 z m 42.89543,0 v 8.00134 h 29.09115 l 0.48085,-8.00134 z m -88.64679,25.00033 0.30599,8.00134 h 8.69893 v -8.00134 z m 17.58364,0 v 8.00134 h 34.31489 v -8.00134 z m 42.89361,0 v 8.00134 h 34.31489 v -8.00134 z m 42.89361,0 v 8.00134 h 12.86444 l 0.48084,-8.00134 z m -102.41464,25.00032 0.30782,7.99952 h 31.92887 v -7.99952 z m 40.81723,0 v 7.99952 h 34.31489 v -7.99952 z m 42.89179,0 v 7.99952 h 30.06742 l 0.48084,-7.99952 z"
       transform="matrix(1.0723298,0,0,1.0723298,-18.163549,-16.556405)" /></g></svg>
