<?xml version="1.0" encoding="UTF-8" standalone="no"?>
<!-- Created with Inkscape (http://www.inkscape.org/) -->

<svg
   width="512"
   height="512"
   viewBox="0 0 512 512"
   version="1.1"
   id="svg1"
   xml:space="preserve"
   inkscape:version="1.3.2 (091e20e, 2023-11-25, custom)"
   sodipodi:docname="DS Status Effects.svg"
   inkscape:export-filename="Taunted.svg"
   inkscape:export-xdpi="96"
   inkscape:export-ydpi="96"
   xmlns:inkscape="http://www.inkscape.org/namespaces/inkscape"
   xmlns:sodipodi="http://sodipodi.sourceforge.net/DTD/sodipodi-0.dtd"
   xmlns="http://www.w3.org/2000/svg"
   xmlns:svg="http://www.w3.org/2000/svg"><sodipodi:namedview
     id="namedview1"
     pagecolor="#ffffff"
     bordercolor="#000000"
     borderopacity="0.25"
     inkscape:showpageshadow="2"
     inkscape:pageopacity="0.0"
     inkscape:pagecheckerboard="0"
     inkscape:deskcolor="#d1d1d1"
     inkscape:document-units="px"
     inkscape:zoom="1.5302233"
     inkscape:cx="198.01032"
     inkscape:cy="258.45902"
     inkscape:window-width="2102"
     inkscape:window-height="1237"
     inkscape:window-x="1317"
     inkscape:window-y="298"
     inkscape:window-maximized="0"
     inkscape:current-layer="layer6"
     inkscape:export-bgcolor="#ffffff00" /><defs
     id="defs1" /><g
     inkscape:groupmode="layer"
     id="layer4"
     inkscape:label="Slowed"
     style="display:inline"><g
       id="g19"
       transform="matrix(1.2703859,0,0,1.2703859,-56.110909,-79.934066)"><path
         style="fill:#ffffff;stroke:#ffffff;stroke-width:6;stroke-linecap:round;stroke-linejoin:round;stroke-dasharray:none;stroke-opacity:1;paint-order:normal"
         d="M 201.93132,428.31683 C 148.73705,426.50742 102.68145,420.32902 78.895672,411.8115 68.07797,407.93775 62.735943,404.00949 62.735943,399.92842 c 0,-2.72549 1.409516,-3.81707 7.188494,-5.567 5.867188,-1.77664 14.737026,-3.00763 28.675735,-3.97969 6.512678,-0.45419 11.841228,-0.9963 11.841228,-1.2047 0,-0.2084 -2.7667,-2.77878 -6.14823,-5.71197 -11.467239,-9.94687 -21.623678,-22.95567 -28.71829,-36.78362 -4.830578,-9.41518 -7.52957,-16.50191 -10.39812,-27.3023 -2.0239,-7.6202 -2.035764,-7.7622 -2.287744,-27.3832 -0.234459,-18.25669 -0.147382,-20.24901 1.17104,-26.79348 7.788861,-38.66284 33.235413,-71.37477 68.800624,-88.44423 62.53,-30.01118 137.3583,-3.5659 167.3954,59.15967 7.49756,15.65694 11.2697,31.4403 12.02498,50.31484 l 0.41841,10.45599 2.42099,-7.51524 c 6.99269,-21.70666 10.40134,-41.82449 11.59975,-68.46152 0.69754,-15.5042 1.34124,-18.59213 5.75397,-27.60289 2.55146,-5.21008 3.99054,-7.16452 8.95052,-12.15587 6.61695,-6.6588 12.41432,-10.41348 19.96047,-12.92743 28.6498,-9.5445 59.0856,7.28473 66.04589,36.51953 1.16157,4.87889 1.3517,7.27401 1.11532,14.05024 -0.32969,9.45085 -1.95976,15.26903 -6.58546,23.5053 -3.43954,6.12427 -11.60944,14.40733 -17.80297,18.04956 l -4.54306,2.67164 -0.39617,13.66584 c -0.41484,14.30984 -0.67102,17.5758 -2.30212,29.34983 -9.75822,70.43885 -49.7627,110.34521 -120.8131,120.5168 -18.19915,2.60539 -39.04953,3.15701 -74.17218,1.96231 z m -25.15973,-47.1417 c 22.99928,-6.6107 43.39,-31.42974 46.75076,-56.90374 0.90908,-6.89067 0.0517,-17.68483 -2.0386,-25.66535 -4.9444,-18.8772 -19.71153,-30.95286 -37.89518,-30.98837 -9.70484,-0.019 -15.99228,3.48355 -17.92273,9.98411 -1.79313,6.03809 -0.97438,11.35559 2.32748,15.11619 2.40485,2.73897 5.50604,3.99425 11.39089,4.61069 2.51521,0.26348 5.603,1.00905 6.86174,1.65683 4.92572,2.53491 7.84337,7.35577 7.84337,12.95968 0,9.11706 -7.44084,15.07729 -17.64448,14.13346 -9.97048,-0.92225 -19.89373,-5.33041 -26.9237,-11.96018 -8.38295,-7.90574 -12.75631,-17.01791 -13.38365,-27.88571 -1.23537,-21.40078 14.03831,-40.85577 36.23816,-46.1587 4.84316,-1.1569 7.03299,-1.31023 14.52518,-1.01701 12.4715,0.48808 20.79548,2.96418 31.55925,9.38779 6.13418,3.66076 15.9591,12.96856 19.88297,18.83644 8.69403,13.00134 13.39423,28.43027 14.33367,47.05196 0.86525,17.15077 -4.39161,36.19943 -14.13274,51.21114 -1.48439,2.28755 -2.55509,4.303 -2.37932,4.47876 0.79251,0.79251 11.19477,-7.33307 17.74747,-13.8632 17.42453,-17.36448 26.56442,-38.19439 27.52892,-62.73869 1.31222,-33.39346 -13.93068,-63.55632 -41.46834,-82.0581 -17.34664,-11.65472 -36.01053,-16.95759 -56.66613,-16.10024 -24.19679,1.00433 -45.69154,10.33859 -62.89772,27.31378 -35.521094,35.04427 -37.534356,92.02662 -4.5851,129.77456 12.42421,14.23365 28.93535,24.47289 47.22434,29.28574 6.19436,1.63008 6.47883,1.62051 13.72349,-0.46184 z"
         id="path16" /><path
         style="fill:none;stroke:#ffffff;stroke-width:25;stroke-linecap:round;stroke-linejoin:round;stroke-dasharray:none;stroke-opacity:1;paint-order:normal"
         d="m 367.13357,178.13718 c 0,0 -20.56317,-23.33574 -12.47653,-66.07942"
         id="path19" /><path
         style="fill:none;stroke:#ffffff;stroke-width:25;stroke-linecap:round;stroke-linejoin:round;stroke-dasharray:none;stroke-opacity:1;paint-order:normal"
         d="m 388.12373,174.52878 c 0,0 -8.62605,-29.88297 16.94243,-65.0777"
         id="path19-2" /></g></g></svg>
