<?xml version="1.0" encoding="UTF-8" standalone="no"?>
<!-- Created with Inkscape (http://www.inkscape.org/) -->

<svg
   width="512"
   height="512"
   viewBox="0 0 512 512"
   version="1.1"
   id="svg1"
   xml:space="preserve"
   inkscape:version="1.3.2 (091e20e, 2023-11-25, custom)"
   sodipodi:docname="DS Status Effects.svg"
   inkscape:export-filename="Taunted.svg"
   inkscape:export-xdpi="96"
   inkscape:export-ydpi="96"
   xmlns:inkscape="http://www.inkscape.org/namespaces/inkscape"
   xmlns:sodipodi="http://sodipodi.sourceforge.net/DTD/sodipodi-0.dtd"
   xmlns="http://www.w3.org/2000/svg"
   xmlns:svg="http://www.w3.org/2000/svg"><sodipodi:namedview
     id="namedview1"
     pagecolor="#ffffff"
     bordercolor="#000000"
     borderopacity="0.25"
     inkscape:showpageshadow="2"
     inkscape:pageopacity="0.0"
     inkscape:pagecheckerboard="0"
     inkscape:deskcolor="#d1d1d1"
     inkscape:document-units="px"
     inkscape:zoom="1.5302233"
     inkscape:cx="198.01032"
     inkscape:cy="258.45902"
     inkscape:window-width="2102"
     inkscape:window-height="1237"
     inkscape:window-x="1317"
     inkscape:window-y="298"
     inkscape:window-maximized="0"
     inkscape:current-layer="layer6"
     inkscape:export-bgcolor="#ffffff00" /><defs
     id="defs1" /><g
     inkscape:groupmode="layer"
     id="layer6"
     inkscape:label="Weakened"
     style="display:inline"><g
       id="g32"
       transform="matrix(1.1955694,0,0,1.1955694,-48.318616,-41.1806)"><g
         id="g35"><path
           style="fill:none;fill-opacity:1;stroke:#ffffff;stroke-width:20.9105;stroke-linecap:round;stroke-linejoin:round;stroke-dasharray:none;stroke-opacity:1;paint-order:normal"
           d="m 172.85059,101.61916 35.94247,67.63719"
           id="path26" /><path
           style="fill:none;fill-opacity:1;stroke:#ffffff;stroke-width:20.9105;stroke-linecap:round;stroke-linejoin:round;stroke-dasharray:none;stroke-opacity:1;paint-order:normal"
           d="m 248.98327,106.84715 -2.61399,34.96222"
           id="path27" /><path
           style="fill:none;fill-opacity:1;stroke:#ffffff;stroke-width:20.9105;stroke-linecap:round;stroke-linejoin:round;stroke-dasharray:none;stroke-opacity:1;paint-order:normal"
           d="m 146.71062,187.22758 33.00172,6.53499"
           id="path28" /></g><g
         id="g33"><path
           style="display:inline;fill:none;fill-opacity:1;stroke:#ffffff;stroke-width:37.639;stroke-linecap:round;stroke-linejoin:round;stroke-dasharray:none;stroke-opacity:1;paint-order:normal"
           d="m 83.623183,298.4242 44.877777,-45.82198 c 0,0 36.12535,-32.86485 72.84301,4.0585 36.71765,36.92335 9.01872,68.70698 9.01872,68.70698 l -47.82959,47.89856 c 0,0 -37.21511,34.24638 -76.043663,-3.72383 C 47.660878,331.57222 83.623183,298.4242 83.623183,298.4242 Z"
           id="path29-3"
           sodipodi:nodetypes="ccsccsc" /><path
           id="path30"
           style="color:#000000;fill:#ffffff;stroke:#ffffff;stroke-width:8.36422;stroke-linecap:butt;stroke-linejoin:miter;stroke-dasharray:none;stroke-opacity:1"
           d="m 213.76343,224.6827 a 15,15 0 0 0 -3.73632,2.6836 l -47.13477,47.13281 a 15,15 0 0 0 0,21.21484 15,15 0 0 0 21.21289,0 L 231.24,248.57919 a 15,15 0 0 0 2.62695,-3.56446 l -6.65039,-12.5 -11.59961,0.81641 z" /></g><g
         id="g34"
         transform="translate(-7.6524137,4.9194088)"><path
           style="fill:none;fill-opacity:1;stroke:#ffffff;stroke-width:37.639;stroke-linecap:round;stroke-linejoin:round;stroke-dasharray:none;stroke-opacity:1;paint-order:normal"
           d="m 322.50196,139.52212 61.75569,-17.31773 c 0,0 47.70546,-10.45599 61.1022,39.86346 13.39673,50.31946 -26.46673,64.04295 -26.46673,64.04295 l -65.34994,17.64448 c 0,0 -49.33921,11.10949 -64.04294,-41.17046 -14.70374,-52.27996 33.00172,-63.0627 33.00172,-63.0627 z"
           id="path29"
           sodipodi:nodetypes="ccsccsc" /><path
           id="path31"
           style="color:#000000;fill:#ffffff;stroke:#ffffff;stroke-width:8.36422;stroke-linecap:butt;stroke-linejoin:miter;stroke-dasharray:none;stroke-opacity:1"
           d="m 323.50753,179.46325 a 15,15 0 0 0 -3.33789,0.37695 l -58.73437,13.42578 -0.25,0.67579 a 15,15 0 0 1 0.002,0 l -0.0586,0.15039 -1.78906,4.81836 -0.0664,-0.0664 -1.30274,3.33789 10.13281,5.70508 -1.08789,11.5039 -0.29101,3.4375 60.13086,-13.74414 a 15,15 0 0 0 11.27929,-17.96484 15,15 0 0 0 -14.62695,-11.65625 z" /></g></g></g></svg>
